<?xml version="1.0" encoding="UTF-8"?>
<svg xmlns="http://www.w3.org/2000/svg" xmlns:xlink="http://www.w3.org/1999/xlink" viewBox="0 0 48 48" width="48px" height="48px">
<g id="surface124224240">
<path style=" stroke:none;fill-rule:nonzero;fill:rgb(5.098039%,56.862748%,83.92157%);fill-opacity:1;" d="M 24 6 L 17.988281 12.351562 L 11.96875 18.691406 L 6 25 L 6 6 Z M 24 6 "/>
<path style=" stroke:none;fill-rule:nonzero;fill:rgb(97.254902%,53.725493%,3.529412%);fill-opacity:1;" d="M 24 6 L 23.960938 6 L 17.96875 12.328125 L 11.960938 18.679688 L 6 24.96875 L 6 42 L 42 6 Z M 24 6 "/>
<path style=" stroke:none;fill-rule:nonzero;fill:rgb(78.039217%,34.117648%,73.725492%);fill-opacity:1;" d="M 14.691406 33.308594 L 6 42 L 6 25.089844 Z M 14.691406 33.308594 "/>
<path style=" stroke:none;fill-rule:nonzero;fill:rgb(82.745099%,38.82353%,56.078434%);fill-opacity:1;" d="M 20.871094 27.128906 L 14.691406 33.308594 L 6 25.089844 L 6 25 L 11.96875 18.691406 Z M 20.871094 27.128906 "/>
<path style=" stroke:none;fill-rule:nonzero;fill:rgb(87.843138%,43.921569%,38.82353%);fill-opacity:1;" d="M 27.058594 20.941406 L 20.871094 27.128906 L 11.96875 18.691406 L 17.988281 12.351562 Z M 27.058594 20.941406 "/>
<path style=" stroke:none;fill-rule:nonzero;fill:rgb(92.54902%,49.019608%,21.176471%);fill-opacity:1;" d="M 33.25 14.75 L 27.058594 20.941406 L 17.988281 12.351562 L 24 6 Z M 33.25 14.75 "/>
<path style=" stroke:none;fill-rule:nonzero;fill:rgb(97.254902%,53.725493%,3.529412%);fill-opacity:1;" d="M 42 6 L 33.25 14.75 L 24 6 Z M 42 6 "/>
<path style=" stroke:none;fill-rule:nonzero;fill:rgb(0%,58.431375%,83.529413%);fill-opacity:1;" d="M 11.511719 19.148438 L 7.988281 22.878906 L 6 21 L 6 13.941406 Z M 11.511719 19.148438 "/>
<path style=" stroke:none;fill-rule:nonzero;fill:rgb(16.862746%,53.333336%,85.490197%);fill-opacity:1;" d="M 15.03125 15.421875 L 11.511719 19.148438 L 6 13.941406 L 6 6.871094 Z M 15.03125 15.421875 "/>
<path style=" stroke:none;fill-rule:nonzero;fill:rgb(33.333334%,48.235294%,87.058824%);fill-opacity:1;" d="M 18.558594 11.699219 L 15.03125 15.421875 L 6 6.871094 L 6 6 L 12.53125 6 Z M 18.558594 11.699219 "/>
<path style=" stroke:none;fill-rule:nonzero;fill:rgb(50.196081%,43.137255%,89.019608%);fill-opacity:1;" d="M 22.078125 7.96875 L 18.558594 11.699219 L 12.53125 6 L 24 6 Z M 22.078125 7.96875 "/>
<path style=" stroke:none;fill-rule:nonzero;fill:rgb(0%,58.431375%,83.529413%);fill-opacity:1;" d="M 23 25 L 6 42 L 40 42 Z M 23 25 "/>
<path style=" stroke:none;fill-rule:nonzero;fill:rgb(16.862746%,53.333336%,85.490197%);fill-opacity:1;" d="M 25.679688 42 L 17.519531 42 L 11.761719 36.25 L 15.839844 32.171875 Z M 25.679688 42 "/>
<path style=" stroke:none;fill-rule:nonzero;fill:rgb(33.333334%,48.235294%,87.058824%);fill-opacity:1;" d="M 33.859375 42 L 25.679688 42 L 15.839844 32.171875 L 19.921875 28.089844 Z M 33.859375 42 "/>
<path style=" stroke:none;fill-rule:nonzero;fill:rgb(50.196081%,43.137255%,89.019608%);fill-opacity:1;" d="M 42 42 L 33.859375 42 L 19.921875 28.089844 L 24 24 Z M 42 42 "/>
</g>
</svg>
