<?xml version="1.0" encoding="UTF-8"?>
<svg xmlns="http://www.w3.org/2000/svg" xmlns:xlink="http://www.w3.org/1999/xlink" viewBox="0 0 30 30" width="30px" height="30px">
<g id="surface128528961">
<path style=" stroke:none;fill-rule:nonzero;fill:rgb(7.843138%,8.235294%,18.82353%);fill-opacity:1;" d="M 15 2.5 C 8.097656 2.5 2.5 8.097656 2.5 15 C 2.5 20.554688 6.125 25.257812 11.136719 26.886719 L 18.863281 26.886719 C 23.875 25.257812 27.5 20.554688 27.5 15 C 27.5 8.097656 21.902344 2.5 15 2.5 Z M 15 2.5 "/>
<path style=" stroke:none;fill-rule:nonzero;fill:rgb(100%,100%,100%);fill-opacity:1;" d="M 23.125 14.6875 C 23.125 12.875 22.578125 11.582031 21.652344 10.671875 C 22.246094 9.621094 21.460938 7.5 21.460938 7.5 C 19.898438 7.8125 18.734375 8.4375 17.957031 8.984375 C 17.039062 8.820312 16.042969 8.75 15 8.75 C 13.929688 8.75 12.914062 8.824219 11.980469 8.996094 C 11.203125 8.445312 10.03125 7.816406 8.457031 7.5 C 8.457031 7.5 7.65625 9.683594 8.300781 10.714844 C 7.402344 11.625 6.875 12.90625 6.875 14.6875 C 6.875 18.515625 9.300781 20.046875 12.628906 20.484375 C 12.167969 21.03125 11.875 21.726562 11.875 22.5 L 11.875 22.691406 C 11.773438 22.71875 11.667969 22.742188 11.554688 22.757812 C 10.863281 22.847656 10.132812 22.757812 9.78125 22.550781 C 9.433594 22.34375 9.015625 21.875 8.703125 21.417969 C 8.4375 21.03125 7.914062 20.148438 6.566406 20.179688 C 6.332031 20.171875 6.226562 20.394531 6.253906 20.53125 C 6.28125 20.652344 6.386719 20.84375 6.816406 21 C 7.242188 21.15625 7.480469 21.535156 7.714844 21.910156 C 7.976562 22.332031 7.972656 23.453125 9.316406 24.046875 C 10.269531 24.46875 11.183594 24.417969 11.875 24.25 L 11.875 26.25 C 11.875 26.648438 11.511719 26.953125 11.132812 26.882812 C 12.347656 27.292969 13.644531 27.5 15 27.5 C 16.355469 27.5 17.652344 27.292969 18.867188 26.886719 C 18.488281 26.953125 18.125 26.652344 18.125 26.25 L 18.125 22.5 C 18.125 21.726562 17.832031 21.03125 17.371094 20.484375 C 20.699219 20.046875 23.125 18.515625 23.125 14.6875 Z M 23.125 14.6875 "/>
<path style=" stroke:none;fill-rule:nonzero;fill:rgb(100%,100%,100%);fill-opacity:1;" d="M 9.375 11.25 L 11.773438 10.449219 C 12.40625 10.238281 12.542969 9.398438 12 9.011719 L 11.980469 8.996094 C 10.480469 9.269531 9.199219 9.800781 8.296875 10.714844 C 8.496094 11.035156 8.832031 11.25 9.375 11.25 Z M 9.375 11.25 "/>
<path style=" stroke:none;fill-rule:nonzero;fill:rgb(100%,100%,100%);fill-opacity:1;" d="M 17.933594 9 C 17.382812 9.390625 17.523438 10.242188 18.160156 10.457031 L 20.546875 11.25 C 21.117188 11.25 21.457031 11.019531 21.652344 10.671875 C 20.742188 9.773438 19.457031 9.25 17.957031 8.984375 C 17.949219 8.988281 17.941406 8.996094 17.933594 9 Z M 17.933594 9 "/>
<path style=" stroke:none;fill-rule:nonzero;fill:rgb(100%,100%,100%);fill-opacity:1;" d="M 15 19.375 C 14.046875 19.375 13.203125 19.8125 12.628906 20.484375 C 13.378906 20.582031 14.175781 20.625 15 20.625 C 15.824219 20.625 16.621094 20.582031 17.371094 20.484375 C 16.796875 19.8125 15.953125 19.375 15 19.375 Z M 15 19.375 "/>
</g>
</svg>
